<?xml version="1.0" encoding="UTF-8" standalone="no"?>
<svg xmlns:dc="http://purl.org/dc/elements/1.1/" xmlns:cc="http://creativecommons.org/ns#" xmlns:rdf="http://www.w3.org/1999/02/22-rdf-syntax-ns#" xmlns:svg="http://www.w3.org/2000/svg" xmlns="http://www.w3.org/2000/svg" xmlns:xlink="http://www.w3.org/1999/xlink" xmlns:sodipodi="http://sodipodi.sourceforge.net/DTD/sodipodi-0.dtd" xmlns:inkscape="http://www.inkscape.org/namespaces/inkscape" width="72" height="72" id="svg11300" version="1.1" sodipodi:docname="Emblem-system-2-blue.svg" inkscape:version="0.92.1 r15371">
  <sodipodi:namedview pagecolor="#ffffff" bordercolor="#666666" borderopacity="1" objecttolerance="10" gridtolerance="10" guidetolerance="10" inkscape:pageopacity="0" inkscape:pageshadow="2" inkscape:window-width="1010" inkscape:window-height="709" id="namedview31" showgrid="false" fit-margin-top="0" fit-margin-left="0" fit-margin-right="0" fit-margin-bottom="0" inkscape:zoom="4.431" inkscape:cx="34.24" inkscape:cy="25.19" inkscape:window-x="696" inkscape:window-y="144" inkscape:window-maximized="0" inkscape:current-layer="g4712" />
  <metadata id="metadata4525">
    <rdf:RDF>
      <cc:Work rdf:about="">
        <dc:format>image/svg+xml</dc:format>
        <dc:type rdf:resource="http://purl.org/dc/dcmitype/StillImage" />
        <dc:title></dc:title>
      </cc:Work>
    </rdf:RDF>
  </metadata>
  <defs id="defs3">
    <linearGradient id="linearGradient5370">
      <stop style="stop-color:#c2c2d0;stop-opacity:1" offset="0" id="stop5360" />
      <stop id="stop5362" offset="0.25" style="stop-color:#f1f1ff;stop-opacity:1" />
      <stop id="stop5364" offset="0.5" style="stop-color:#dddde7;stop-opacity:1" />
      <stop style="stop-color:#a5a5bb;stop-opacity:1" offset="0.75" id="stop5366" />
      <stop style="stop-color:#c2c2d0;stop-opacity:1" offset="1" id="stop5368" />
    </linearGradient>
    <linearGradient id="linearGradient4735">
      <stop id="stop4725" offset="0" style="stop-color:#c2c2d0;stop-opacity:1" />
      <stop style="stop-color:#f7f7f9;stop-opacity:1" offset="0.25" id="stop4727" />
      <stop style="stop-color:#dedee6;stop-opacity:1" offset="0.5" id="stop4729" />
      <stop id="stop4731" offset="0.75" style="stop-color:#a6a6ba;stop-opacity:1" />
      <stop id="stop4733" offset="1" style="stop-color:#c2c2d0;stop-opacity:1" />
    </linearGradient>
    <linearGradient id="linearGradient3264">
      <stop style="stop-color:#c9c9c9;stop-opacity:1;" offset="0" id="stop3266" />
      <stop id="stop3276" offset="0.25" style="stop-color:#f8f8f8;stop-opacity:1;" />
      <stop id="stop3272" offset="0.5" style="stop-color:#e2e2e2;stop-opacity:1;" />
      <stop style="stop-color:#b0b0b0;stop-opacity:1;" offset="0.75" id="stop3274" />
      <stop style="stop-color:#c9c9c9;stop-opacity:1;" offset="1" id="stop3268" />
    </linearGradient>
    <linearGradient id="linearGradient3256">
      <stop style="stop-color:#000000;stop-opacity:1;" offset="0" id="stop3258" />
      <stop style="stop-color:#000000;stop-opacity:0;" offset="1" id="stop3260" />
    </linearGradient>
    <radialGradient xlink:href="#linearGradient3256" id="radialGradient3262" cx="25.46" cy="39.16" fx="25.46" fy="39.16" r="19.62" gradientTransform="matrix(1,0,0,0.3153,-0.8839,29.28)" gradientUnits="userSpaceOnUse" />
    <linearGradient xlink:href="#linearGradient5370" id="linearGradient3281" gradientUnits="userSpaceOnUse" x1="14.46" y1="12.28" x2="34.53" y2="39.68" gradientTransform="matrix(0.8585,-0.3556,0.3557,0.8588,23.28,38.3)" />
    <linearGradient xlink:href="#linearGradient3264" id="linearGradient3281-5" gradientUnits="userSpaceOnUse" x1="14.46" y1="12.28" x2="34.53" y2="39.68" gradientTransform="matrix(1.242,0,0,1.242,-58.81,-6.736)" />
    <filter height="1.12" y="-0.06001" width="1.12" x="-0.05999" id="filter4598-9" style="color-interpolation-filters:sRGB">
      <feGaussianBlur id="feGaussianBlur4600-0" stdDeviation="1.104" />
    </filter>
    <linearGradient y2="39.68" x2="34.53" y1="12.28" x1="14.46" gradientTransform="matrix(1.242,0,0,1.242,-4.714,-6.019)" gradientUnits="userSpaceOnUse" id="linearGradient4658" xlink:href="#linearGradient4735" />
    <filter inkscape:collect="always" style="color-interpolation-filters:sRGB" id="filter4682" x="-0.036" width="1.072" y="-0.036" height="1.072">
      <feGaussianBlur inkscape:collect="always" stdDeviation="0.6626" id="feGaussianBlur4684" />
    </filter>
    <filter inkscape:collect="always" style="color-interpolation-filters:sRGB" id="filter4707" x="-0.03595" width="1.072" y="-0.03605" height="1.072">
      <feGaussianBlur inkscape:collect="always" stdDeviation="0.639" id="feGaussianBlur4709" />
    </filter>
  </defs>
  <g id="g4716">
    <path inkscape:connector-curvature="0" style="color:#000000;display:inline;overflow:visible;visibility:visible;opacity:0.75;fill:#000000;fill-opacity:1;fill-rule:nonzero;stroke:#000000;stroke-width:0;stroke-linecap:butt;stroke-linejoin:miter;stroke-miterlimit:4;stroke-dasharray:none;stroke-dashoffset:0;stroke-opacity:1;marker:none;marker-start:none;marker-mid:none;marker-end:none;filter:url(#filter4707)" d="m 21.87,1.622 v 0 L 20.75,7.591 C 18.97,7.997 17.29,8.686 15.78,9.62 L 10.88,6.091 C 9.547,7.12 8.337,8.321 7.277,9.62 l 3.413,4.97 c -1.043,1.58 -1.813,3.39 -2.253,5.28 v 0 l -5.94,0.97 c -0.225,1.71 -0.157,3.35 -0.06,4.94 l 5.94,1.06 c 0.42,2.07 1.22,3.99 2.353,5.69 l -3.543,4.85 c 1.01,1.25 2.18,2.39 3.453,3.4 l 5,-3.44 c 1.74,1.12 3.69,1.9 5.81,2.29 l 0.93,5.9 c 1.64,0.2 3.35,0.1 4.85,-0.1 l 1.12,-6.03 c 2.01,-0.5 3.9,-1.37 5.54,-2.53 l 4.81,3.5 c 1.25,-1.07 2.39,-2.29 3.37,-3.6 l -3.5,-5.06 c 0.95,-1.64 1.61,-3.44 1.94,-5.38 l 5.91,-0.93 c 0.23,-1.71 0,-3.5 -0.18,-5.07 l -6,-1.09 c -0.51,-1.78 -1.28,-3.4 -2.26,-4.85 L 41.5,9.59 C 40.41,8.252 39.16,7.016 37.78,5.966 L 32.69,9.47 C 31.22,8.6 29.65,7.936 27.94,7.559 L 27,1.622 c -1.77,-0.229 -3.47,-0.173 -5.13,0 z m 2.19,15.038 h 0.35 c 3.7,0 6.71,3.02 6.71,6.71 0,3.7 -3.01,6.69 -6.71,6.69 -3.7,0 -6.69,-2.99 -6.69,-6.69 0,-3.58 2.8,-6.53 6.34,-6.71 z" id="path3243-7" transform="matrix(0.6912,-0.2863,0.2864,0.6915,29.39,43.91)" />
    <g id="g4712" transform="translate(0.8007,1.811)">
      <path inkscape:connector-curvature="0" id="path3243" d="m 44.12,36.02 v 0 l 0.93,4.45 c -1.11,0.79 -2.08,1.75 -2.85,2.83 l -4.4,-1.04 c -0.63,1.09 -1.12,2.27 -1.48,3.47 l 3.78,2.46 c -0.26,1.39 -0.28,2.86 0,4.29 v 0 l -3.83,2.37 c 0.18,0.65 0.41,1.3 0.67,1.93 0.22,0.52 0.44,1.02 0.7,1.51 l 4.41,-0.97 c 0.88,1.31 1.99,2.41 3.25,3.26 l -1.06,4.37 c 1.06,0.57 2.19,1.03 3.36,1.36 l 2.47,-3.81 c 1.52,0.28 3.1,0.26 4.67,-0.1 l 2.34,3.82 c 0.49,-0.12 0.96,-0.32 1.43,-0.52 0.67,-0.27 1.3,-0.54 1.9,-0.91 L 59.46,60.3 c 1.25,-0.92 2.3,-2.06 3.11,-3.33 l 4.32,1.04 c 0.56,-1.1 1,-2.27 1.3,-3.45 l -3.87,-2.5 c 0.19,-1.41 0.13,-2.84 -0.2,-4.27 L 67.9,45.47 C 67.79,45.01 67.62,44.6 67.44,44.16 67.13,43.41 66.73,42.71 66.32,42.02 l -4.45,0.96 C 61,41.89 60.01,41 58.91,40.27 l 1.06,-4.36 C 58.83,35.3 57.61,34.8 56.36,34.47 l -2.52,3.88 c -1.26,-0.18 -2.54,-0.19 -3.83,0 l -2.35,-3.84 c -0.61,0.18 -1.23,0.38 -1.83,0.64 -0.62,0.23 -1.18,0.57 -1.71,0.87 z m 5.82,9.77 c 0.1,0 0.15,-0.1 0.24,-0.1 2.55,-1.06 5.5,0.17 6.56,2.72 1.06,2.56 -0.17,5.49 -2.73,6.55 -2.55,1.06 -5.48,-0.16 -6.54,-2.71 -1.02,-2.48 0.1,-5.32 2.47,-6.46 z" style="color:#000000;display:inline;overflow:visible;visibility:visible;opacity:1;fill:url(#linearGradient3281);fill-opacity:1.0;fill-rule:nonzero;stroke:#797987;stroke-width:1;stroke-linecap:butt;stroke-linejoin:miter;stroke-miterlimit:4;stroke-dasharray:none;stroke-dashoffset:0;stroke-opacity:1;marker:none;marker-start:none;marker-mid:none;marker-end:none" />
      <path inkscape:connector-curvature="0" d="M 57.43,48.11 A 5.779,5.776 69.53 1 1 46.76,52.53 5.779,5.776 69.53 1 1 57.43,48.11 Z" id="path3283" style="color:#000000;display:inline;overflow:visible;visibility:visible;opacity:0.6477;fill:none;fill-opacity:1;fill-rule:nonzero;stroke:#ffffff;stroke-width:0.7483;stroke-linecap:butt;stroke-linejoin:miter;stroke-miterlimit:4;stroke-dasharray:none;stroke-dashoffset:0;stroke-opacity:1;marker:none;marker-start:none;marker-mid:none;marker-end:none" />
      <path inkscape:connector-curvature="0" style="color:#000000;display:inline;overflow:visible;visibility:visible;opacity:0.3466;fill:none;fill-opacity:1;fill-rule:nonzero;stroke:#ffffff;stroke-width:1;stroke-linecap:butt;stroke-linejoin:miter;stroke-miterlimit:4;stroke-dasharray:none;stroke-dashoffset:0;stroke-opacity:1;marker:none;marker-start:none;marker-mid:none;marker-end:none" d="m 45.06,36.43 0.87,4.35 c -1.04,0.74 -2.84,2.43 -3.56,3.44 l -4.23,-1.08 c -0.58,1.03 -0.62,1.1 -0.96,2.23 l 3.77,2.49 c -0.25,1.31 -0.29,3.47 0,4.89 l -3.81,2.38 c 0.17,0.61 0.71,1.82 0.96,2.27 l 4.2,-0.91 c 0.83,1.23 2.75,2.95 3.93,3.75 l -1.13,4.29 c 0.99,0.55 1.16,0.57 2.24,0.88 l 2.3,-3.79 c 1.43,0.25 4.05,0.21 5.52,-0.11 l 2.18,3.71 c 0.45,-0.11 1.68,-0.52 2.25,-0.84 L 58.5,60.02 c 1.16,-0.87 3.03,-2.72 3.78,-3.92 l 4.28,1.02 C 67.05,56.1 67.01,56 67.3,54.88 l -3.88,-2.46 c 0.16,-1.32 0.1,-3.73 -0.2,-5.07 l 3.73,-2.32 c -0.17,-0.4 -0.63,-1.51 -0.98,-2.16 l -4.37,0.98 c -0.77,-1 -2.65,-2.59 -3.68,-3.28 l 1.25,-4.34 c -1.07,-0.57 -1.39,-0.58 -2.56,-0.9 l -2.4,3.87 c -1.18,-0.17 -3.43,-0.24 -4.64,0 l -2.26,-3.7 c -0.81,0.23 -1.55,0.56 -2.25,0.93 z" id="path3285" />
    </g>
  </g>
  <g id="g4723">
    <path style="color:#000000;display:inline;overflow:visible;visibility:visible;opacity:0.75;fill:#000000;fill-opacity:1;fill-rule:nonzero;stroke:#000000;stroke-width:0;stroke-linecap:butt;stroke-linejoin:miter;stroke-miterlimit:4;stroke-dasharray:none;stroke-dashoffset:0;stroke-opacity:1;marker:none;marker-start:none;marker-mid:none;marker-end:none;filter:url(#filter4682)" d="m 24.36,4.466 c -0.47,0.03 -0.92,0.105 -1.38,0.157 v 0 L 21.86,10.59 C 20.08,11 18.4,11.69 16.89,12.62 L 11.99,9.092 C 10.66,10.12 9.45,11.32 8.391,12.62 l 3.409,4.97 c -1.04,1.58 -1.81,3.39 -2.25,5.28 0,0 0,0 0,0 l -5.94,0.97 c -0.11,0.89 -0.16,1.81 -0.16,2.72 0,0.75 0,1.49 0.1,2.22 l 5.94,1.06 c 0.42,2.07 1.22,3.99 2.35,5.69 L 8.3,40.38 c 1.01,1.25 2.18,2.39 3.45,3.4 l 5,-3.44 c 1.74,1.12 3.69,1.9 5.81,2.29 l 0.93,5.9 c 0.67,0.1 1.35,0.1 2.04,0.1 0.96,0 1.88,0 2.81,-0.15 l 1.12,-6.03 c 2.01,-0.5 3.9,-1.37 5.54,-2.53 l 4.81,3.5 c 1.25,-1.07 2.39,-2.29 3.37,-3.6 l -3.5,-5.06 c 0.95,-1.64 1.61,-3.44 1.94,-5.38 l 5.91,-0.93 c 0.1,-0.62 0.1,-1.22 0.1,-1.85 0,-1.09 -0.13,-2.16 -0.28,-3.22 l -6,-1.09 c -0.51,-1.78 -1.28,-3.4 -2.26,-4.85 l 3.52,-4.85 C 41.52,11.25 40.27,10.02 38.89,8.967 L 33.8,12.47 C 32.33,11.6 30.76,10.94 29.05,10.56 L 28.11,4.623 C 27.26,4.522 26.4,4.466 25.52,4.466 c -0.24,0 -0.49,-0.01 -0.72,0 -0.12,0 -0.23,-0.01 -0.35,0 0,0 -0.1,0 -0.1,0 z m 0.81,15.194 c 0.12,0 0.23,0 0.35,0 3.7,0 6.71,3.02 6.71,6.71 0,3.7 -3.01,6.69 -6.71,6.69 -3.7,0 -6.69,-2.99 -6.69,-6.69 0,-3.58 2.8,-6.53 6.34,-6.71 z" id="path3243-7-8" inkscape:connector-curvature="0" />
    <g transform="translate(0.8008,1.811)" id="g4741">
      <path id="path3243-73" d="m 23.56,1.659 c -0.47,0.03 -0.92,0.104 -1.38,0.156 v 0 L 21.06,7.784 C 19.28,8.19 17.6,8.879 16.09,9.815 L 11.19,6.284 C 9.862,7.313 8.656,8.514 7.594,9.815 L 11,14.78 c -1.034,1.58 -1.811,3.39 -2.249,5.28 0,0 0,0 0,0 l -5.937,0.97 c -0.109,0.89 -0.157,1.81 -0.157,2.72 0,0.75 0.02,1.49 0.09,2.22 l 5.938,1.06 c 0.422,2.07 1.224,3.99 2.345,5.69 l -3.533,4.85 c 1.012,1.25 2.179,2.39 3.443,3.4 l 5,-3.44 c 1.74,1.12 3.69,1.9 5.81,2.29 l 0.93,5.9 c 0.67,0.1 1.35,0.1 2.04,0.1 0.96,0 1.88,0 2.81,-0.15 l 1.12,-6.03 c 2.01,-0.5 3.9,-1.37 5.54,-2.53 l 4.81,3.5 c 1.25,-1.07 2.39,-2.29 3.37,-3.6 l -3.5,-5.06 c 0.95,-1.64 1.61,-3.44 1.94,-5.38 l 5.91,-0.93 c 0.1,-0.62 0.1,-1.22 0.1,-1.85 0,-1.09 -0.13,-2.16 -0.28,-3.22 l -6,-1.09 C 40.03,17.7 39.26,16.08 38.28,14.63 L 41.81,9.784 C 40.72,8.445 39.47,7.209 38.09,6.159 L 33,9.659 C 31.53,8.793 29.96,8.129 28.25,7.752 L 27.31,1.815 c -0.85,-0.1 -1.71,-0.156 -2.59,-0.156 -0.24,0 -0.49,-0.01 -0.72,0 -0.12,0 -0.23,-0.01 -0.35,0 0,0 -0.1,0 -0.1,0 z m 0.81,15.191 c 0.12,0 0.23,0 0.35,0 3.7,0 6.71,3.02 6.71,6.71 0,3.7 -3.01,6.69 -6.71,6.69 -3.7,0 -6.69,-2.99 -6.69,-6.69 0,-3.58 2.8,-6.53 6.34,-6.71 z" style="color:#000000;display:inline;overflow:visible;visibility:visible;opacity:1;fill:url(#linearGradient4658);fill-opacity:1;fill-rule:nonzero;stroke:#797987;stroke-width:1;stroke-linecap:butt;stroke-linejoin:miter;stroke-miterlimit:4;stroke-dasharray:none;stroke-dashoffset:0;stroke-opacity:1;marker:none;marker-start:none;marker-mid:none;marker-end:none" inkscape:connector-curvature="0" />
      <path d="m 32.44,23.55 a 7.721,7.721 0 1 1 -15.44,0 7.721,7.721 0 1 1 15.44,0 z" id="path3283-8" style="color:#000000;display:inline;overflow:visible;visibility:visible;opacity:0.6477;fill:none;fill-opacity:1;fill-rule:nonzero;stroke:#ffffff;stroke-width:1;stroke-linecap:butt;stroke-linejoin:miter;stroke-miterlimit:4;stroke-dasharray:none;stroke-dashoffset:0;stroke-opacity:1;marker:none;marker-start:none;marker-mid:none;marker-end:none" inkscape:connector-curvature="0" />
      <path style="color:#000000;display:inline;overflow:visible;visibility:visible;opacity:0.3466;fill:none;fill-opacity:1;fill-rule:nonzero;stroke:#ffffff;stroke-width:1;stroke-linecap:butt;stroke-linejoin:miter;stroke-miterlimit:4;stroke-dasharray:none;stroke-dashoffset:0;stroke-opacity:1;marker:none;marker-start:none;marker-mid:none;marker-end:none" d="M 22.87,2.84 21.99,8.619 C 20.32,9 17.24,10.16 15.83,11.04 L 11.16,7.554 C 9.919,8.519 9.833,8.585 8.839,9.804 l 3.371,5.006 c -0.97,1.49 -2.13,4.13 -2.544,6.01 0,0 -5.919,1 -5.919,1 -0.102,0.83 -0.05,2.61 0.02,3.29 l 5.655,1.02 c 0.396,1.94 1.878,5.05 2.928,6.64 l -3.584,4.72 c 0.948,1.18 1.138,1.29 2.314,2.23 l 4.78,-3.5 c 1.64,1.04 4.89,2.32 6.87,2.68 l 0.79,5.7 c 0.62,0.1 2.35,0.22 3.22,0.11 l 0.88,-5.94 c 1.88,-0.47 5.13,-1.81 6.67,-2.9 l 4.77,3.45 c 1.17,-0.99 1.18,-1.14 2.11,-2.37 l -3.54,-5.03 c 0.88,-1.54 2.03,-4.54 2.35,-6.35 l 5.79,-0.96 c 0,-0.58 0,-2.19 -0.1,-3.17 l -5.9,-1.02 C 39.33,18.79 37.82,15.86 36.9,14.49 L 40.66,9.767 C 39.63,8.513 39.25,8.34 37.96,7.356 L 33.02,10.9 C 31.65,10.08 28.91,8.847 27.31,8.494 L 26.43,2.84 c -0.8,-0.09 -3.11,-0.05 -3.56,0 z" id="path3285-6" inkscape:connector-curvature="0" />
    </g>
  </g>
</svg>
